 General
      Complete name : Psycho.1960.HDRip.H264.AAC.5.1ch.Gopo.mp4
      Format : MPEG-4
      Format profile : Base Media
      Codec ID : isom
      File size : 1.80 GiB
      Duration : 1h 48mn
      Overall bit rate : 2 372 Kbps
      Encoded date : UTC 2009-12-16 14:29:07
      Tagged date : UTC 2009-12-16 14:29:07
      Writing application : Yamb 2.1.0.0 [http://yamb.unite-video.com]
   Video #2
      ID : 2
      Format : AVC
      Format/Info : Advanced Video Codec
      Format profile : High@L4.1
      Format settings, CABAC : Yes
      Format settings, ReFrames : 5 frames
      Codec ID : avc1
      Codec ID/Info : Advanced Video Coding
      Duration : 1h 48mn
      Bit rate mode : Variable
      Bit rate : 2 007 Kbps
      Maximum bit rate : 11.2 Mbps
      Width : 1 280 pixels
      Height : 720 pixels
      Display aspect ratio : 16:9
      Frame rate mode : Constant
      Frame rate : 23.976 fps
      Resolution : 24 bits
      Colorimetry : 4:2:0
      Scan type : Progressive
      Bits/(Pixel*Frame) : 0.091
      Stream size : 1.52 GiB (85%)
      Writing library : x264 core 79 r1360 528c100
      Encoding settings : cabac=1 / ref=5 / deblock=1:0:0 / analyse=0x3:0x113 / me=umh / subme=8 / psy=1 / psy_rd=1.0:0.0 / mixed_ref=1 / me_range=16 / chroma_me=1 / trellis=2 / 8x8dct=1 / cqm=0 / deadzone=21,11 / chroma_qp_offset=-2 / threads=3 / nr=0 / decimate=1 / mbaff=0 / constrained_intra=0 / bframes=3 / b_pyramid=0 / b_adapt=2 / b_bias=0 / direct=3 / wpredb=1 / wpredp=2 / keyint=250 / keyint_min=25 / scenecut=40 / rc_lookahead=30 / rc=2pass / mbtree=1 / bitrate=2007 / ratetol=1.0 / qcomp=0.50 / qpmin=10 / qpmax=51 / qpstep=4 / cplxblur=20.0 / qblur=0.5 / vbv_maxrate=24000 / vbv_bufsize=24000 / ip_ratio=1.10 / aq=1:1.00
      Encoded date : UTC 2009-12-15 22:31:32
      Tagged date : UTC 2009-12-16 14:32:20
   Audio #1
      ID : 1
      Format : AAC
      Format/Info : Advanced Audio Codec
      Format version : Version 4
      Format profile : LC
      Format settings, SBR : No
      Codec ID : 40
      Duration : 1h 48mn
      Bit rate mode : Variable
      Bit rate : 362 Kbps
      Maximum bit rate : 432 Kbps
      Channel(s) : 6 channels
      Channel positions : Front: L C R, Rear: L R, LFE
      Sampling rate : 48.0 KHz
      Resolution : 16 bits
      Stream size : 281 MiB (15%)
      Encoded date : UTC 2009-12-16 14:29:07
      Tagged date : UTC 2009-12-16 14:32:20
	Sample : YES
	Subtitle : English,Romanian

PLOT

Phoenix officeworker Marion Crane is fed up with the way life has treated her. She has to meet her lover Sam in lunch breaks and they cannot get married because Sam has to give most of his money away in alimony. One Friday Marion is trusted to bank $40,000 by her employer. Seeing the opportunity to take the money and start a new life, Marion leaves town and heads towards Sam's California store. Tired after the long drive and caught in a storm, she gets off the main highway and pulls into The Bates Motel. The motel is managed by a quiet young man called Norman who seems to be dominated by his mother.
Director: Alfred Hitchcock
CASTING
      
      Anthony Perkins	... 	Norman Bates
	Vera Miles	... 	Lila Crane
	John Gavin	... 	Sam Loomis
	Martin Balsam	... 	Milton Arbogast
	John McIntire	... 	Deputy Sheriff Al Chambers
	Simon Oakland	... 	Dr. Fred Richmond
	Vaughn Taylor	... 	George Lowery
	Frank Albertson	... 	Tom Cassidy
	Lurene Tuttle	... 	Mrs. Chambers
	Patricia Hitchcock	... 	Caroline (as Pat Hitchcock)
	John Anderson	... 	California Charlie
	Mort Mills	... 	Highway Patrol Officer
	Janet Leigh	... 	Marion Crane

SOURCE: Psycho.1960.720p.HDTV.x264-TSE.mkv

Notes: For best performance I suggest you to use KMPlayer(find it with google) for playback
I haven't tested the movies on a PS3 or Xbox or other devices than PC because I don't own one of them but feel free to test them if you have the oportunity.
